{
  "asset": {
    "version": "2.0",
    "generator": "Ldx12 GenerateScene.py"
  },
  "scene": 0,
  "scenes": [
    {
      "nodes": [
        0,
        3
      ]
    }
  ],
  "nodes": [
    {
      "name": "Parent",
      "translation": [
        0,
        1,
        0
      ],
      "children": [
        1,
        2
      ]
    },
    {
      "name": "Cyan pyramid",
      "mesh": 0,
      "translation": [
        -1.5,
        0,
        0
      ]
    },
    {
      "name": "Mirrored coral pyramid",
      "mesh": 1,
      "translation": [
        1.5,
        0,
        0
      ],
      "scale": [
        0.75,
        0.6,
        -0.75
      ]
    },
    {
      "name": "Floor",
      "mesh": 2,
      "matrix": [
        1,
        0,
        0,
        0,
        0,
        1,
        0,
        0,
        0,
        0,
        1,
        0,
        0,
        0,
        0,
        1
      ]
    }
  ],
  "meshes": [
    {
      "primitives": [
        {
          "attributes": {
            "POSITION": 0
          },
          "material": 0,
          "mode": 4
        }
      ]
    },
    {
      "primitives": [
        {
          "attributes": {
            "POSITION": 0
          },
          "material": 1,
          "mode": 4
        }
      ]
    },
    {
      "primitives": [
        {
          "attributes": {
            "POSITION": 1,
            "NORMAL": 2
          },
          "indices": 3,
          "material": 2,
          "mode": 4
        }
      ]
    }
  ],
  "materials": [
    {
      "pbrMetallicRoughness": {
        "baseColorFactor": [
          0.05,
          0.65,
          0.75,
          1
        ],
        "metallicFactor": 0,
        "roughnessFactor": 1
      }
    },
    {
      "pbrMetallicRoughness": {
        "baseColorFactor": [
          0.9,
          0.2,
          0.12,
          1
        ],
        "metallicFactor": 0,
        "roughnessFactor": 1
      }
    },
    {
      "pbrMetallicRoughness": {
        "baseColorFactor": [
          0.18,
          0.22,
          0.28,
          1
        ],
        "metallicFactor": 0,
        "roughnessFactor": 1
      }
    }
  ],
  "buffers": [
    {
      "byteLength": 324,
      "uri": "Scene.bin"
    }
  ],
  "bufferViews": [
    {
      "buffer": 0,
      "byteOffset": 0,
      "byteLength": 216
    },
    {
      "buffer": 0,
      "byteOffset": 216,
      "byteLength": 48
    },
    {
      "buffer": 0,
      "byteOffset": 264,
      "byteLength": 48
    },
    {
      "buffer": 0,
      "byteOffset": 312,
      "byteLength": 12
    }
  ],
  "accessors": [
    {
      "bufferView": 0,
      "componentType": 5126,
      "count": 18,
      "type": "VEC3",
      "min": [
        -1,
        0,
        -1
      ],
      "max": [
        1,
        2,
        1
      ]
    },
    {
      "bufferView": 1,
      "componentType": 5126,
      "count": 4,
      "type": "VEC3",
      "min": [
        -3,
        0,
        -3
      ],
      "max": [
        3,
        0,
        3
      ]
    },
    {
      "bufferView": 2,
      "componentType": 5126,
      "count": 4,
      "type": "VEC3"
    },
    {
      "bufferView": 3,
      "componentType": 5123,
      "count": 6,
      "type": "SCALAR"
    }
  ]
}
